<svg width="10" height="18" viewBox="0 0 10 18" fill="none" xmlns="http://www.w3.org/2000/svg">
<path d="M0.285 17.699C0.455226 17.8731 0.68314 17.9792 0.925983 17.9972C1.16883 18.0153 1.40991 17.9441 1.604 17.797L1.699 17.715L9.699 9.89801C9.87118 9.72978 9.9769 9.50507 9.99674 9.26517C10.0166 9.02526 9.94921 8.78624 9.807 8.59201L9.727 8.49601L2.004 0.314009C1.82947 0.128908 1.59096 0.0172859 1.33702 0.00186956C1.08308 -0.0135467 0.832811 0.0684032 0.637173 0.231032C0.441534 0.39366 0.315233 0.62474 0.283989 0.877221C0.252745 1.1297 0.318906 1.3846 0.469 1.59001L0.549 1.68601L7.598 9.15501L0.301 16.285C0.12687 16.4552 0.0208352 16.6831 0.00279223 16.926C-0.0152507 17.1688 0.0559365 17.4099 0.202999 17.604L0.285 17.699Z" fill="white"/>
</svg>
